#!OML:ASF F:\VICON\USERDATA\INSTALL\rory3\rory3.ASF
:FULLY-SPECIFIED
:DEGREES
45
root 0.38976825818965855 17.106345749298473 7.92530636329767 1.5109992075653906 -7.602527766603133 -5.089292025161807
lfemur -21.122674145266608 10.485701796743045 -13.219094012407385
ltibia 98.98077709887042
lfoot 2.451384883092312 -8.904579804407584
ltoes -2.0871600043566056
rfemur -20.210030176745747 7.684071578226563 33.51956513144982
rtibia 52.522642093710665
rfoot -6.741641250543477 -6.9647451091323695
rtoes -0.9736713127113921
lowerback 16.96139035390809 1.0685604233247685 3.6832104437084308
upperback -0.13958962683874265 2.219749151956366 2.769530581945963
thorax -9.394132343005413 1.0136851561452587 0.5671793806020416
lowerneck -20.43143764343664 -3.5256170101420654 -2.3124950423901565
upperneck 12.207907215223825 -5.078336821979703 4.171458530837669
head 7.2647812816151385 -2.041455828431352 1.399136194267495
lclavicle 2.9801515526439752e-15 1.1900897868484632e-16
lhumerus -49.03945605970648 -11.097890437585406 96.58187931404935
lradius 110.22976866817572
lwrist 34.12396021727134
lhand -20.32506298599979 2.815186399313701
lfingers 7.125019999999999
lthumb 5.862861424210825 32.059729153202476
rclavicle 2.9801381671163074e-15 1.190016624685627e-16
rhumerus -45.55044894585571 9.06282021153092 -96.249817210135
rradius 108.5580535862937
rwrist -15.056846312361007
rhand -16.33810607966198 39.021440444791565
rfingers 7.125019999999999
rthumb 9.744682612623214 8.90767292599197
46
root 0.38909577880283686 17.076250029168317 8.707275462341713 1.7713105233604183 -7.199826720405786 -5.497714635039851
lfemur -25.26180614736539 11.212087289675248 -12.70319262672401
ltibia 102.5321275972928
lfoot 1.6049628783479382 -8.476904667666584
ltoes -5.809975039727828
rfemur -17.55346391243375 7.601510584019588 34.047001979341445
rtibia 51.83886941137133
rfoot -8.047887092933017 -8.261696083976727
rtoes 0.40841285438522223
lowerback 16.992446209119205 1.3206372934380695 4.333853555301908
upperback -0.19153054026167415 2.602280184167962 2.806980798210252
thorax -9.51741553088085 1.129116125594833 0.016848592223882283
lowerneck -20.405190826482187 -3.639287135011161 -2.2832047393120662
upperneck 12.069959614706578 -5.3195604486629176 4.233148493941754
head 7.24240568747414 -2.1354842813608874 1.3653827495142838
lclavicle 2.9801515526439752e-15 1.1900897868484632e-16
lhumerus -50.77868789700626 -10.80339214925547 96.6683741105623
lradius 111.01668424864239
lwrist 34.22945107117999
lhand -20.401631454216016 2.950310012520076
lfingers 7.125019999999999
lthumb 5.821143959694979 32.33618634850345
rclavicle 2.9801381671163074e-15 1.190016624685627e-16
rhumerus -43.16750511375511 10.271158712446756 -96.31793653763684
rradius 109.41413354829452
rwrist -15.14934259815566
rhand -16.35291494794101 38.899598322424765
rfingers 7.125019999999999
rthumb 9.826968366785703 8.95446394654282
47
root 0.39307335408325367 17.089754518983487 9.238377325916463 1.9396168095701696 -6.698790646510251 -5.639873344452043
lfemur -27.45345723694139 11.76510084959133 -12.478782878753195
ltibia 104.16773257671782
lfoot 0.8658518340472832 -8.29019464808073
ltoes -9.08507658848157
rfemur -14.673332099802787 7.286014168130659 34.220687965403435
rtibia 50.27470456392191
rfoot -8.014936717091134 -8.821187841960949
rtoes 1.7218942790722633
lowerback 16.958906315338886 1.5998779097307385 4.841021656193906
upperback -0.25239257599563947 3.0446026948245244 2.7864473170092534
thorax -9.506961877801167 1.3246494150684445 -0.2940834232151607
lowerneck -20.372829048925393 -3.75097515837998 -2.247291248614588
upperneck 11.939280296653408 -5.571104475703164 4.353439689939337
head 7.224716955377454 -2.2326274453729407 1.345854590983077
lclavicle 2.9801515526439752e-15 1.1900897868484632e-16
lhumerus -52.1093372260483 -10.610787059927397 96.85472659337547
lradius 111.85101459504753
lwrist 34.31332530563298
lhand -20.447318668202932 3.1267979228252623
lfingers 7.125019999999999
lthumb 5.742406415546931 32.5748617686274
rclavicle 2.980138167116308e-15 1.1900166246856319e-16
rhumerus -41.37246583302655 11.184989791400499 -96.22273020915394
rradius 110.34584393449168
rwrist -15.188924362229606
rhand -16.297595225577155 38.94103646483781
rfingers 7.125019999999999
rthumb 9.826741762658349 8.993849589508304
48
root 0.3998816284412096 17.13434254505208 9.241762509039416 2.0180519013261096 -6.205328928132653 -5.771655905484263
lfemur -30.80188098091711 11.534224818278446 -13.1898733158134
ltibia 103.85112937675305
lfoot -0.034141183460143054 -8.351812619012103
ltoes -11.742390132005038
rfemur -11.68848144286217 6.5775498295190555 34.19889905118032
rtibia 48.06361312361612
rfoot -6.624527403075557 -8.517363657520175
rtoes 3.0993630323223114
lowerback 16.847600524580997 1.835908401280355 5.316022040597412
upperback -0.3783524899744859 3.423071557543162 2.6843044336659654
thorax -9.498143400769788 1.4843466361752427 -0.5889386206646315
lowerneck -20.42907639360994 -3.9594634772299604 -2.2448718336599827
upperneck 11.821397444477258 -5.843481658890808 4.472604325710744
head 7.204765698447167 -2.3489506441438404 1.3177980107698335
lclavicle 2.9801515526439752e-15 1.1900897868484635e-16
lhumerus -53.05819651596422 -10.45876136578162 97.0808845442129
lradius 112.10096030043205
lwrist 34.318337795276776
lhand -20.517369695177145 3.293435632890333
lfingers 7.125019999999999
lthumb 5.659486201083625 32.777408052190026
rclavicle 2.9801381671163086e-15 1.1900166246856338e-16
rhumerus -39.89376313143536 11.980188984139016 -95.99654213162478
rradius 111.23921498193434
rwrist -15.205133575585547
rhand -16.2255645186789 38.95767050147993
rfingers 7.125019999999999
rthumb 9.930446173572404 9.067572891487728
49
root 0.41588576839777003 17.241581434596608 10.265485273992184 2.1709339396745753 -5.412193872977696 -5.878530487014645
lfemur -34.06088242522583 10.581919321969728 -14.470282691257857
ltibia 101.62543687360953
lfoot -1.1951503132324233 -8.667332875423428
ltoes -13.894219155890646
rfemur -8.960037032927158 5.903511626952319 34.189538542503556
rtibia 45.64423833747699
rfoot -5.143970830755359 -7.896733963034841
rtoes 3.961694171985505
lowerback 16.63663314390582 1.9914416957706824 5.825424222752243
upperback -0.5392558261592638 3.7720083970472946 2.558070034451325
thorax -9.457761070539714 1.617950033354455 -0.9431476962542534
lowerneck -20.41583776011715 -4.113935450816329 -2.221457086806829
upperneck 11.824421320976466 -6.0536539862359655 4.641516899010129
head 7.189581927163676 -2.479281130379717 1.2882198290235412
lclavicle 2.9801515526439752e-15 1.1900897868484635e-16
lhumerus -53.99592176317018 -10.438784512490725 97.22439689005024
lradius 111.89826381799813
lwrist 34.374276385925135
lhand -20.559999227698363 3.421985480302421
lfingers 7.125019999999999
lthumb 5.635112663044119 33.02528306764658
rclavicle 2.980138167116308e-15 1.190016624685632e-16
rhumerus -38.80728099559214 12.694852654575232 -95.74953560506133
rradius 111.92611483259496
rwrist -15.245299478395195
rhand -16.186931114638536 38.89526921314769
rfingers 7.125019999999999
rthumb 9.93105226986614 9.096584142599825
